<!DOCTYPE svg PUBLIC "-//W3C//DTD SVG 1.1//EN" "http://www.w3.org/Graphics/SVG/1.1/DTD/svg11.dtd">
<!-- Uploaded to: SVG Repo, www.svgrepo.com, Transformed by: SVG Repo Mixer Tools -->
<svg width="100px" height="100px" viewBox="-2.4 -2.4 28.80 28.80" xmlns="http://www.w3.org/2000/svg" fill="#000000">
<g id="SVGRepo_bgCarrier" stroke-width="0"/>
<g id="SVGRepo_tracerCarrier" stroke-linecap="round" stroke-linejoin="round"/>
<g id="SVGRepo_iconCarrier">
<path d="M20 4.026h2V7H2V4.026h2v-1H1V21h22V3.026h-3zM22 20H2V8.026h20zM7 4.026v-1h10v1zM5 2h1v3H5zm13 0h1v3h-1zM9.209 17.309L12 15.28l2.791 2.028-1.066-3.281L16.515 12h-3.449L12 8.719 10.934 12h-3.45l2.791 2.028zM11.66 13l.34-1.046.34 1.046h1.097l-.888.646.34 1.044-.889-.645-.889.645.34-1.044-.889-.646z"/>
<path fill="none" d="M0 0h24v24H0z"/>
</g>
</svg>